<?xml version="1.0" encoding="utf-8"?>
<!-- Generator: Adobe Illustrator 21.1.0, SVG Export Plug-In . SVG Version: 6.00 Build 0)  -->
<svg version="1.1" id="Ebene_1" xmlns="http://www.w3.org/2000/svg" xmlns:xlink="http://www.w3.org/1999/xlink" x="0px" y="0px"
	 viewBox="0 0 141.7 141.7" style="enable-background:new 0 0 141.7 141.7;" xml:space="preserve">
<style type="text/css">
	.st0{fill:#D50F2E;}
	.st1{fill:#EDEDED;}
	.st2{fill:#FFFFFF;}
</style>
<g>
	<g>
		<g>
			<g>
				<g>
					<ellipse class="st0" cx="70.8" cy="70.9" rx="66.9" ry="66.9"/>
					<path class="st1" d="M70.8,141.7c-39,0-70.8-31.8-70.8-70.8S31.8,0,70.8,0s70.9,31.8,70.9,70.9S109.8,141.7,70.8,141.7z
						 M70.8,8C36.2,8,8,36.2,8,70.9s28.2,62.8,62.8,62.8s62.8-28.2,62.8-62.8S105.4,8,70.8,8z"/>
				</g>
			</g>
		</g>
	</g>
	<path class="st2" d="M85.8,67.7c10.3,0,18.6,8.3,18.6,18.6s-8.3,18.6-18.6,18.6s-18.6-8.3-18.6-18.6S75.6,67.7,85.8,67.7
		 M85.8,66.1c-11.2,0-20.2,9-20.2,20.2s9,20.2,20.2,20.2s20.2-9,20.2-20.2S97,66.1,85.8,66.1L85.8,66.1z M85.8,69.1
		c-9.5,0-17.2,7.7-17.2,17.2s7.7,17.2,17.2,17.2s17.3-7.7,17.3-17.2S95.4,69.1,85.8,69.1z M89.1,82.8v2.7h-7.9c0,0.3,0,0.6,0,0.9
		s0,0.7,0,0.9h7.9V90h-7.2c1,2.1,2.9,3.1,5,3.1c1.8,0,3.8-0.8,5.1-2.5l2.9,3.2c-2.4,2.8-5.6,3.9-8.4,3.9c-4.8,0-8.6-3.1-9.8-7.7
		h-3.1v-2.7h2.7c0-0.3,0-0.6,0-0.9s0-0.6,0-0.9h-2.7v-2.7h3.1c1.2-4.7,4.9-7.9,10.1-7.9c3.8,0,6.2,1.6,8.1,3.8l-2.8,3.7
		c-1.6-1.9-3.4-2.8-5.4-2.8c-2.1,0-3.9,1-4.9,3.2C81.8,82.8,89.1,82.8,89.1,82.8z M49,83.2L48.3,82h-6.4v20.4h6.4l0.8-1.2h21.6
		c-3.7-3.8-6-9.1-6-14.8c0-1.1,0.1-2.1,0.3-3.1H49V83.2z M53.7,96.5c-2.4,0-4.3-1.9-4.3-4.3s1.9-4.3,4.3-4.3c2.4,0,4.3,1.9,4.3,4.3
		S56.1,96.5,53.7,96.5z M53.7,89.8c-1.3,0-2.4,1.1-2.4,2.4s1.1,2.4,2.4,2.4s2.4-1.1,2.4-2.4C56,90.9,55,89.8,53.7,89.8z M92.2,38.5
		H49l-0.8-1.2h-6.4v20.4h6.4l0.8-1.2h43.2l0.8,1.2h6.4V37.2H93L92.2,38.5z M53.7,51.8c-2.4,0-4.3-1.9-4.3-4.3c0-2.4,1.9-4.3,4.3-4.3
		c2.4,0,4.3,1.9,4.3,4.3C58,49.8,56.1,51.8,53.7,51.8z M66.2,46.1v-2.4l2-1.2l2,1.2v2.4l-2,1.2L66.2,46.1z M73.3,51.1l-2,1.2l-2-1.2
		v-2.4l2-1.2l2,1.2V51.1z M72.4,46.1v-2.4l2-1.2l2,1.2v2.4l-2,1.2L72.4,46.1z M79.5,51.1l-2,1.2l-2-1.2v-2.4l2-1.2l2,1.2V51.1z
		 M78.6,46.1v-2.4l2-1.2l2,1.2v2.4l-2,1.2L78.6,46.1z M85.7,51.1l-2,1.2l-2-1.2v-2.4l2-1.2l2,1.2V51.1z M84.8,46.1v-2.4l2-1.2l2,1.2
		v2.4l-2,1.2L84.8,46.1z M91.9,51.1l-2,1.2l-2-1.2v-2.4l2-1.2l2,1.2V51.1z M53.7,67.4c-1.3,0-2.4,1.1-2.4,2.4s1.1,2.4,2.4,2.4
		s2.4-1.1,2.4-2.4C56,68.5,55,67.4,53.7,67.4z M53.7,45.1c-1.3,0-2.4,1.1-2.4,2.4c0,1.3,1.1,2.4,2.4,2.4s2.4-1.1,2.4-2.4
		C56,46.1,55,45.1,53.7,45.1z M99.4,59.6H93l-0.8,1.2H49l-0.8-1.2h-6.4V80h6.4l0.8-1.2h17c0.8-2.1,1.9-4,3.2-5.7v-2l2-1.2l0.6,0.4
		c0.5-0.4,1-0.8,1.5-1.2l-1.1-0.6v-2.4l2-1.2l2,1.2v1.2c0.7-0.3,1.4-0.6,2.1-0.9v-0.3l2-1.2l1,0.6c1.4-0.3,2.8-0.4,4.3-0.4
		c0.2,0,0.4,0,0.7,0l0.3-0.2l0.4,0.2c4.6,0.3,8.8,2,12.2,4.8V59.6H99.4z M53.7,74.1c-2.4,0-4.3-1.9-4.3-4.3s1.9-4.3,4.3-4.3
		c2.4,0,4.3,1.9,4.3,4.3S56.1,74.1,53.7,74.1z M70.2,68.5l-2,1.2l-2-1.2v-2.4l2-1.2l2,1.2V68.5z"/>
</g>
</svg>
